<mxfile host="app.diagrams.net" modified="2022-06-30T06:23:20.893Z" agent="5.0 (Windows)" etag="yn1FwPaUmnC_4-27HO03" version="20.0.3" type="github" pages="2">
  <diagram id="hvnbycpErKgsuc5wg75p" name="Page-1">
    <mxGraphModel dx="1198" dy="727" grid="1" gridSize="10" guides="1" tooltips="1" connect="1" arrows="1" fold="1" page="1" pageScale="1" pageWidth="850" pageHeight="1100" math="0" shadow="0">
      <root>
        <mxCell id="0" />
        <mxCell id="1" parent="0" />
        <mxCell id="R9oLo-mkkq91ETubRvnD-2" value="" style="line;strokeWidth=10;direction=south;html=1;fillColor=none;fontSize=13;fontColor=#000000;align=center;strokeColor=#AE4132;" vertex="1" parent="1">
          <mxGeometry x="620" y="260" width="10" height="990" as="geometry" />
        </mxCell>
        <mxCell id="R9oLo-mkkq91ETubRvnD-3" value="" style="rounded=1;whiteSpace=wrap;html=1;strokeColor=none;strokeWidth=1;fillColor=#F2931E;fontSize=13;fontColor=#FFFFFF;align=center;gradientColor=none;gradientDirection=east;verticalAlign=top;shadow=1;" vertex="1" parent="1">
          <mxGeometry x="430" y="325" width="220" height="85" as="geometry" />
        </mxCell>
        <mxCell id="R9oLo-mkkq91ETubRvnD-4" value="1" style="text;html=1;strokeColor=none;fillColor=none;align=center;verticalAlign=middle;whiteSpace=wrap;fontSize=30;fontColor=#FFFFFF;" vertex="1" parent="1">
          <mxGeometry x="440" y="358" width="40" height="20" as="geometry" />
        </mxCell>
        <mxCell id="R9oLo-mkkq91ETubRvnD-5" value="" style="rounded=1;whiteSpace=wrap;html=1;strokeColor=none;strokeWidth=1;fillColor=#10739E;fontSize=13;fontColor=#FFFFFF;align=center;gradientColor=none;gradientDirection=east;verticalAlign=top;shadow=1;" vertex="1" parent="1">
          <mxGeometry x="600" y="440" width="220" height="85" as="geometry" />
        </mxCell>
        <mxCell id="R9oLo-mkkq91ETubRvnD-6" value="2" style="text;html=1;strokeColor=none;fillColor=none;align=center;verticalAlign=middle;whiteSpace=wrap;fontSize=30;fontColor=#FFFFFF;" vertex="1" parent="1">
          <mxGeometry x="610" y="473" width="40" height="20" as="geometry" />
        </mxCell>
        <mxCell id="R9oLo-mkkq91ETubRvnD-7" value="" style="rounded=1;whiteSpace=wrap;html=1;strokeColor=none;strokeWidth=1;fillColor=#F2931E;fontSize=13;fontColor=#FFFFFF;align=center;gradientColor=none;gradientDirection=east;verticalAlign=top;shadow=1;" vertex="1" parent="1">
          <mxGeometry x="430" y="550" width="220" height="85" as="geometry" />
        </mxCell>
        <mxCell id="R9oLo-mkkq91ETubRvnD-8" value="3" style="text;html=1;strokeColor=none;fillColor=none;align=center;verticalAlign=middle;whiteSpace=wrap;fontSize=30;fontColor=#FFFFFF;" vertex="1" parent="1">
          <mxGeometry x="440" y="583" width="40" height="20" as="geometry" />
        </mxCell>
        <mxCell id="R9oLo-mkkq91ETubRvnD-9" value="" style="rounded=1;whiteSpace=wrap;html=1;strokeColor=none;strokeWidth=1;fillColor=#10739E;fontSize=13;fontColor=#FFFFFF;align=center;gradientColor=none;gradientDirection=east;verticalAlign=top;shadow=1;" vertex="1" parent="1">
          <mxGeometry x="600" y="665" width="220" height="85" as="geometry" />
        </mxCell>
        <mxCell id="R9oLo-mkkq91ETubRvnD-10" value="4" style="text;html=1;strokeColor=none;fillColor=none;align=center;verticalAlign=middle;whiteSpace=wrap;fontSize=30;fontColor=#FFFFFF;" vertex="1" parent="1">
          <mxGeometry x="610" y="698" width="40" height="20" as="geometry" />
        </mxCell>
        <mxCell id="R9oLo-mkkq91ETubRvnD-11" value="" style="rounded=1;whiteSpace=wrap;html=1;strokeColor=none;strokeWidth=1;fillColor=#F2931E;fontSize=13;fontColor=#FFFFFF;align=center;gradientColor=none;gradientDirection=east;verticalAlign=top;shadow=1;" vertex="1" parent="1">
          <mxGeometry x="430" y="780" width="220" height="85" as="geometry" />
        </mxCell>
        <mxCell id="R9oLo-mkkq91ETubRvnD-12" value="5" style="text;html=1;strokeColor=none;fillColor=none;align=center;verticalAlign=middle;whiteSpace=wrap;fontSize=30;fontColor=#FFFFFF;" vertex="1" parent="1">
          <mxGeometry x="440" y="813" width="40" height="20" as="geometry" />
        </mxCell>
        <mxCell id="R9oLo-mkkq91ETubRvnD-13" value="" style="rounded=1;whiteSpace=wrap;html=1;strokeColor=none;strokeWidth=1;fillColor=#10739E;fontSize=13;fontColor=#FFFFFF;align=center;gradientColor=none;gradientDirection=east;verticalAlign=top;shadow=1;" vertex="1" parent="1">
          <mxGeometry x="600" y="895" width="220" height="85" as="geometry" />
        </mxCell>
        <mxCell id="R9oLo-mkkq91ETubRvnD-14" value="6" style="text;html=1;strokeColor=none;fillColor=none;align=center;verticalAlign=middle;whiteSpace=wrap;fontSize=30;fontColor=#FFFFFF;" vertex="1" parent="1">
          <mxGeometry x="610" y="928" width="40" height="20" as="geometry" />
        </mxCell>
        <mxCell id="R9oLo-mkkq91ETubRvnD-15" value="" style="rounded=1;whiteSpace=wrap;html=1;strokeColor=none;strokeWidth=1;fillColor=#F2931E;fontSize=13;fontColor=#FFFFFF;align=center;gradientColor=none;gradientDirection=east;verticalAlign=top;shadow=1;" vertex="1" parent="1">
          <mxGeometry x="430" y="1020" width="220" height="85" as="geometry" />
        </mxCell>
        <mxCell id="R9oLo-mkkq91ETubRvnD-16" value="7" style="text;html=1;strokeColor=none;fillColor=none;align=center;verticalAlign=middle;whiteSpace=wrap;fontSize=30;fontColor=#FFFFFF;" vertex="1" parent="1">
          <mxGeometry x="440" y="1053" width="40" height="20" as="geometry" />
        </mxCell>
        <mxCell id="R9oLo-mkkq91ETubRvnD-17" value="" style="rounded=1;whiteSpace=wrap;html=1;strokeColor=none;strokeWidth=1;fillColor=#10739E;fontSize=13;fontColor=#FFFFFF;align=center;gradientColor=none;gradientDirection=east;verticalAlign=top;shadow=1;" vertex="1" parent="1">
          <mxGeometry x="600" y="1135" width="220" height="85" as="geometry" />
        </mxCell>
        <mxCell id="R9oLo-mkkq91ETubRvnD-18" value="8" style="text;html=1;strokeColor=none;fillColor=none;align=center;verticalAlign=middle;whiteSpace=wrap;fontSize=30;fontColor=#FFFFFF;" vertex="1" parent="1">
          <mxGeometry x="610" y="1168" width="40" height="20" as="geometry" />
        </mxCell>
        <mxCell id="R9oLo-mkkq91ETubRvnD-19" value="&lt;h1&gt;Heading&lt;/h1&gt;&lt;p&gt;Lorem ipsum dolor sit amet, consectetur adipisicing elit, sed do eiusmod tempor incididunt ut labore et dolore magna aliqua.&lt;/p&gt;" style="text;html=1;spacing=5;spacingTop=-20;whiteSpace=wrap;overflow=hidden;strokeColor=none;strokeWidth=4;fillColor=none;gradientColor=#007FFF;fontSize=9;fontColor=#FFFFFF;align=center;" vertex="1" parent="1">
          <mxGeometry x="480" y="329" width="160" height="77" as="geometry" />
        </mxCell>
        <mxCell id="R9oLo-mkkq91ETubRvnD-20" value="&lt;h1&gt;Heading&lt;/h1&gt;&lt;p&gt;Lorem ipsum dolor sit amet, consectetur adipisicing elit, sed do eiusmod tempor incididunt ut labore et dolore magna aliqua.&lt;/p&gt;" style="text;html=1;spacing=5;spacingTop=-20;whiteSpace=wrap;overflow=hidden;strokeColor=none;strokeWidth=4;fillColor=none;gradientColor=#007FFF;fontSize=9;fontColor=#FFFFFF;align=center;" vertex="1" parent="1">
          <mxGeometry x="660" y="444" width="160" height="77" as="geometry" />
        </mxCell>
        <mxCell id="R9oLo-mkkq91ETubRvnD-21" value="&lt;h1&gt;Heading&lt;/h1&gt;&lt;p&gt;Lorem ipsum dolor sit amet, consectetur adipisicing elit, sed do eiusmod tempor incididunt ut labore et dolore magna aliqua.&lt;/p&gt;" style="text;html=1;spacing=5;spacingTop=-20;whiteSpace=wrap;overflow=hidden;strokeColor=none;strokeWidth=4;fillColor=none;gradientColor=#007FFF;fontSize=9;fontColor=#FFFFFF;align=center;" vertex="1" parent="1">
          <mxGeometry x="480" y="554" width="160" height="77" as="geometry" />
        </mxCell>
        <mxCell id="R9oLo-mkkq91ETubRvnD-22" value="&lt;h1&gt;Heading&lt;/h1&gt;&lt;p&gt;Lorem ipsum dolor sit amet, consectetur adipisicing elit, sed do eiusmod tempor incididunt ut labore et dolore magna aliqua.&lt;/p&gt;" style="text;html=1;spacing=5;spacingTop=-20;whiteSpace=wrap;overflow=hidden;strokeColor=none;strokeWidth=4;fillColor=none;gradientColor=#007FFF;fontSize=9;fontColor=#FFFFFF;align=center;" vertex="1" parent="1">
          <mxGeometry x="650" y="669" width="160" height="77" as="geometry" />
        </mxCell>
        <mxCell id="R9oLo-mkkq91ETubRvnD-23" value="&lt;h1&gt;Heading&lt;/h1&gt;&lt;p&gt;Lorem ipsum dolor sit amet, consectetur adipisicing elit, sed do eiusmod tempor incididunt ut labore et dolore magna aliqua.&lt;/p&gt;" style="text;html=1;spacing=5;spacingTop=-20;whiteSpace=wrap;overflow=hidden;strokeColor=none;strokeWidth=4;fillColor=none;gradientColor=#007FFF;fontSize=9;fontColor=#FFFFFF;align=center;" vertex="1" parent="1">
          <mxGeometry x="480" y="784" width="160" height="77" as="geometry" />
        </mxCell>
        <mxCell id="R9oLo-mkkq91ETubRvnD-24" value="&lt;h1&gt;Heading&lt;/h1&gt;&lt;p&gt;Lorem ipsum dolor sit amet, consectetur adipisicing elit, sed do eiusmod tempor incididunt ut labore et dolore magna aliqua.&lt;/p&gt;" style="text;html=1;spacing=5;spacingTop=-20;whiteSpace=wrap;overflow=hidden;strokeColor=none;strokeWidth=4;fillColor=none;gradientColor=#007FFF;fontSize=9;fontColor=#FFFFFF;align=center;" vertex="1" parent="1">
          <mxGeometry x="650" y="899" width="160" height="77" as="geometry" />
        </mxCell>
        <mxCell id="R9oLo-mkkq91ETubRvnD-25" value="&lt;h1&gt;Heading&lt;/h1&gt;&lt;p&gt;Lorem ipsum dolor sit amet, consectetur adipisicing elit, sed do eiusmod tempor incididunt ut labore et dolore magna aliqua.&lt;/p&gt;" style="text;html=1;spacing=5;spacingTop=-20;whiteSpace=wrap;overflow=hidden;strokeColor=none;strokeWidth=4;fillColor=none;gradientColor=#007FFF;fontSize=9;fontColor=#FFFFFF;align=center;" vertex="1" parent="1">
          <mxGeometry x="480" y="1024" width="160" height="77" as="geometry" />
        </mxCell>
        <mxCell id="R9oLo-mkkq91ETubRvnD-26" value="&lt;h1&gt;Heading&lt;/h1&gt;&lt;p&gt;Lorem ipsum dolor sit amet, consectetur adipisicing elit, sed do eiusmod tempor incididunt ut labore et dolore magna aliqua.&lt;/p&gt;" style="text;html=1;spacing=5;spacingTop=-20;whiteSpace=wrap;overflow=hidden;strokeColor=none;strokeWidth=4;fillColor=none;gradientColor=#007FFF;fontSize=9;fontColor=#FFFFFF;align=center;" vertex="1" parent="1">
          <mxGeometry x="650" y="1140" width="160" height="77" as="geometry" />
        </mxCell>
      </root>
    </mxGraphModel>
  </diagram>
  <diagram id="3av9AmncDDi42UuAQdcK" name="Page-2">
    <mxGraphModel dx="2628" dy="1955" grid="1" gridSize="10" guides="1" tooltips="1" connect="1" arrows="1" fold="1" page="1" pageScale="1" pageWidth="850" pageHeight="1100" math="0" shadow="0">
      <root>
        <mxCell id="0" />
        <mxCell id="1" parent="0" />
        <mxCell id="nfirUbUoAYjW5tZPSxkn-1" value="" style="line;strokeWidth=2;html=1;fillColor=none;fontSize=28;fontColor=#004D99;strokeColor=#004D99;sketch=0;shadow=0;" vertex="1" parent="1">
          <mxGeometry x="-170" y="170" width="1570" height="10" as="geometry" />
        </mxCell>
        <mxCell id="nfirUbUoAYjW5tZPSxkn-2" value="Stage 1" style="shape=offPageConnector;whiteSpace=wrap;html=1;fillColor=#0075E8;fontSize=15;fontColor=#FFFFFF;size=0.5093750000000015;verticalAlign=top;strokeColor=none;" vertex="1" parent="1">
          <mxGeometry x="-153" y="110" width="160" height="40" as="geometry" />
        </mxCell>
        <mxCell id="nfirUbUoAYjW5tZPSxkn-3" value="&lt;span&gt;Stage 2&lt;br&gt;&lt;/span&gt;" style="shape=offPageConnector;whiteSpace=wrap;html=1;fillColor=#0075E8;fontSize=15;fontColor=#FFFFFF;size=0.5093750000000015;verticalAlign=top;strokeColor=none;" vertex="1" parent="1">
          <mxGeometry x="74" y="110" width="160" height="40" as="geometry" />
        </mxCell>
        <mxCell id="nfirUbUoAYjW5tZPSxkn-6" value="" style="ellipse;whiteSpace=wrap;html=1;fillColor=#61BAFF;fontSize=28;fontColor=#004D99;strokeWidth=3;strokeColor=#004D99;" vertex="1" parent="1">
          <mxGeometry x="-83" y="165" width="20" height="20" as="geometry" />
        </mxCell>
        <mxCell id="nfirUbUoAYjW5tZPSxkn-7" value="" style="ellipse;whiteSpace=wrap;html=1;fillColor=#61BAFF;fontSize=28;fontColor=#004D99;strokeWidth=3;strokeColor=#004D99;" vertex="1" parent="1">
          <mxGeometry x="144" y="165" width="20" height="20" as="geometry" />
        </mxCell>
        <mxCell id="nfirUbUoAYjW5tZPSxkn-10" value="&lt;h1&gt;バルク製造&lt;br&gt;&lt;/h1&gt;&lt;p&gt;滅菌滅菌パウチに封緘するまでを製造 @高崎&lt;br&gt;&lt;/p&gt;" style="text;html=1;spacing=5;spacingTop=-20;whiteSpace=wrap;overflow=hidden;strokeColor=none;strokeWidth=3;fillColor=#E6E6E6;fontSize=13;fontColor=#000000;align=center;rounded=1;" vertex="1" parent="1">
          <mxGeometry x="-180" y="200" width="215" height="120" as="geometry" />
        </mxCell>
        <mxCell id="nfirUbUoAYjW5tZPSxkn-14" value="&lt;h1&gt;滅菌&lt;/h1&gt;&lt;div&gt;バルク製品の滅菌&lt;/div&gt;&lt;div&gt;＠ジャパンガス&lt;br&gt;&lt;/div&gt;" style="text;html=1;spacing=5;spacingTop=-20;whiteSpace=wrap;overflow=hidden;strokeColor=none;strokeWidth=3;fillColor=#E6E6E6;fontSize=13;fontColor=#000000;align=center;rounded=1;" vertex="1" parent="1">
          <mxGeometry x="46.5" y="200" width="215" height="120" as="geometry" />
        </mxCell>
        <mxCell id="nfirUbUoAYjW5tZPSxkn-18" value="Raw Data" style="shape=document;whiteSpace=wrap;html=1;boundedLbl=1;fontFamily=Montserrat;fontSource=https%3A%2F%2Ffonts.googleapis.com%2Fcss%3Ffamily%3DMontserrat;fontSize=16;" vertex="1" parent="1">
          <mxGeometry x="-180" y="330" width="120" height="50" as="geometry" />
        </mxCell>
        <mxCell id="nfirUbUoAYjW5tZPSxkn-19" value="Raw Data" style="shape=document;whiteSpace=wrap;html=1;boundedLbl=1;fontFamily=Montserrat;fontSource=https%3A%2F%2Ffonts.googleapis.com%2Fcss%3Ffamily%3DMontserrat;fontSize=16;" vertex="1" parent="1">
          <mxGeometry x="46.5" y="330" width="120" height="50" as="geometry" />
        </mxCell>
        <mxCell id="nfirUbUoAYjW5tZPSxkn-25" value="" style="ellipse;whiteSpace=wrap;html=1;fillColor=#61BAFF;fontSize=28;fontColor=#004D99;strokeWidth=3;strokeColor=#004D99;" vertex="1" parent="1">
          <mxGeometry x="374.5" y="165" width="20" height="20" as="geometry" />
        </mxCell>
        <mxCell id="nfirUbUoAYjW5tZPSxkn-26" value="&lt;h1&gt;アルミ包装&lt;br&gt;&lt;/h1&gt;&lt;div&gt;タイベックをさらにアルミ包装&lt;/div&gt;&lt;div&gt;＠晴海&lt;br&gt;&lt;/div&gt;" style="text;html=1;spacing=5;spacingTop=-20;whiteSpace=wrap;overflow=hidden;strokeColor=none;strokeWidth=3;fillColor=#E6E6E6;fontSize=13;fontColor=#000000;align=center;rounded=1;" vertex="1" parent="1">
          <mxGeometry x="277" y="200" width="215" height="120" as="geometry" />
        </mxCell>
        <mxCell id="nfirUbUoAYjW5tZPSxkn-27" value="Raw Data" style="shape=document;whiteSpace=wrap;html=1;boundedLbl=1;fontFamily=Montserrat;fontSource=https%3A%2F%2Ffonts.googleapis.com%2Fcss%3Ffamily%3DMontserrat;fontSize=16;" vertex="1" parent="1">
          <mxGeometry x="277" y="330" width="120" height="50" as="geometry" />
        </mxCell>
        <mxCell id="nfirUbUoAYjW5tZPSxkn-39" value="Stage 3" style="shape=offPageConnector;whiteSpace=wrap;html=1;fillColor=#0075E8;fontSize=15;fontColor=#FFFFFF;size=0.5093750000000015;verticalAlign=top;strokeColor=none;" vertex="1" parent="1">
          <mxGeometry x="304.5" y="110" width="160" height="40" as="geometry" />
        </mxCell>
        <mxCell id="nfirUbUoAYjW5tZPSxkn-41" value="" style="ellipse;whiteSpace=wrap;html=1;fillColor=#61BAFF;fontSize=28;fontColor=#004D99;strokeWidth=3;strokeColor=#004D99;" vertex="1" parent="1">
          <mxGeometry x="605" y="165" width="20" height="20" as="geometry" />
        </mxCell>
        <mxCell id="nfirUbUoAYjW5tZPSxkn-42" value="&lt;h1&gt;品質試験&lt;br&gt;&lt;/h1&gt;&lt;div&gt;製品試験&lt;/div&gt;&lt;div&gt;＠東レリサーチセンター&lt;/div&gt;&lt;div&gt;@秦野研&lt;br&gt;&lt;/div&gt;" style="text;html=1;spacing=5;spacingTop=-20;whiteSpace=wrap;overflow=hidden;strokeColor=none;strokeWidth=3;fillColor=#E6E6E6;fontSize=13;fontColor=#000000;align=center;rounded=1;" vertex="1" parent="1">
          <mxGeometry x="507.5" y="200" width="215" height="120" as="geometry" />
        </mxCell>
        <mxCell id="nfirUbUoAYjW5tZPSxkn-43" value="Raw Data" style="shape=document;whiteSpace=wrap;html=1;boundedLbl=1;fontFamily=Montserrat;fontSource=https%3A%2F%2Ffonts.googleapis.com%2Fcss%3Ffamily%3DMontserrat;fontSize=16;" vertex="1" parent="1">
          <mxGeometry x="507.5" y="330" width="120" height="50" as="geometry" />
        </mxCell>
        <mxCell id="nfirUbUoAYjW5tZPSxkn-44" value="Stage 4" style="shape=offPageConnector;whiteSpace=wrap;html=1;fillColor=#0075E8;fontSize=15;fontColor=#FFFFFF;size=0.5093750000000015;verticalAlign=top;strokeColor=none;" vertex="1" parent="1">
          <mxGeometry x="535" y="110" width="160" height="40" as="geometry" />
        </mxCell>
        <mxCell id="nfirUbUoAYjW5tZPSxkn-45" value="バルク製造と滅菌のデータを利用して、製造所からの出荷判定を作成する。by R&amp;amp;D" style="whiteSpace=wrap;html=1;shape=mxgraph.basic.roundRectCallout;dx=25;dy=16;size=5;boundedLbl=1;shadow=0;sketch=0;fontFamily=Montserrat;fontSource=https%3A%2F%2Ffonts.googleapis.com%2Fcss%3Ffamily%3DMontserrat;fontSize=16;" vertex="1" parent="1">
          <mxGeometry x="690" y="-20" width="220" height="120" as="geometry" />
        </mxCell>
        <mxCell id="nfirUbUoAYjW5tZPSxkn-46" value="① &lt;font data-font-src=&quot;https://fonts.googleapis.com/css?family=Montserrat&quot; style=&quot;font-size: 16px;&quot; face=&quot;Montserrat&quot;&gt;COA &lt;br&gt;&lt;/font&gt;" style="shape=document;whiteSpace=wrap;html=1;boundedLbl=1;fontFamily=Montserrat;fontSource=https%3A%2F%2Ffonts.googleapis.com%2Fcss%3Ffamily%3DMontserrat;fontSize=16;" vertex="1" parent="1">
          <mxGeometry x="840" y="-50" width="120" height="50" as="geometry" />
        </mxCell>
        <mxCell id="nfirUbUoAYjW5tZPSxkn-47" value="&lt;div&gt;①と②のCOAを合わせて、&lt;/div&gt;&lt;div&gt;治験品の出荷判定を行う。&lt;/div&gt;&lt;div&gt;by QA&lt;br&gt;&lt;/div&gt;" style="whiteSpace=wrap;html=1;shape=mxgraph.basic.roundRectCallout;dx=25;dy=16;size=5;boundedLbl=1;shadow=0;sketch=0;fontFamily=Montserrat;fontSource=https%3A%2F%2Ffonts.googleapis.com%2Fcss%3Ffamily%3DMontserrat;fontSize=16;" vertex="1" parent="1">
          <mxGeometry x="1040" y="-20" width="220" height="120" as="geometry" />
        </mxCell>
        <mxCell id="nfirUbUoAYjW5tZPSxkn-8" value="" style="ellipse;whiteSpace=wrap;html=1;fillColor=#61BAFF;fontSize=28;fontColor=#004D99;strokeWidth=3;strokeColor=#004D99;" vertex="1" parent="1">
          <mxGeometry x="838" y="165" width="20" height="20" as="geometry" />
        </mxCell>
        <mxCell id="nfirUbUoAYjW5tZPSxkn-9" value="" style="ellipse;whiteSpace=wrap;html=1;fillColor=#61BAFF;fontSize=28;fontColor=#004D99;strokeWidth=3;strokeColor=#004D99;" vertex="1" parent="1">
          <mxGeometry x="1065" y="165" width="20" height="20" as="geometry" />
        </mxCell>
        <mxCell id="nfirUbUoAYjW5tZPSxkn-12" value="&lt;h1&gt;シロバコ包装&lt;br&gt;&lt;/h1&gt;&lt;p&gt;晴海にてシロバコへ封緘&lt;/p&gt;&lt;p&gt;ついでに輸送箱への箱詰めも&lt;br&gt;&lt;/p&gt;" style="text;html=1;spacing=5;spacingTop=-20;whiteSpace=wrap;overflow=hidden;strokeColor=none;strokeWidth=3;fillColor=#E6E6E6;fontSize=13;fontColor=#000000;align=center;rounded=1;" vertex="1" parent="1">
          <mxGeometry x="740" y="200" width="215" height="120" as="geometry" />
        </mxCell>
        <mxCell id="nfirUbUoAYjW5tZPSxkn-15" value="&lt;span&gt;Stage 5&lt;br&gt;&lt;/span&gt;" style="shape=offPageConnector;whiteSpace=wrap;html=1;fillColor=#0075E8;fontSize=15;fontColor=#FFFFFF;size=0.5093750000000015;verticalAlign=top;strokeColor=none;" vertex="1" parent="1">
          <mxGeometry x="768" y="110" width="160" height="40" as="geometry" />
        </mxCell>
        <mxCell id="nfirUbUoAYjW5tZPSxkn-16" value="Stage 6" style="shape=offPageConnector;whiteSpace=wrap;html=1;fillColor=#0075E8;fontSize=15;fontColor=#FFFFFF;size=0.5093750000000015;verticalAlign=top;strokeColor=none;" vertex="1" parent="1">
          <mxGeometry x="995" y="110" width="160" height="40" as="geometry" />
        </mxCell>
        <mxCell id="nfirUbUoAYjW5tZPSxkn-17" value="&lt;h1&gt;出荷判定&lt;br&gt;&lt;/h1&gt;QAにて臨床試験品の出荷判定" style="text;html=1;spacing=5;spacingTop=-20;whiteSpace=wrap;overflow=hidden;strokeColor=none;strokeWidth=3;fillColor=#E6E6E6;fontSize=13;fontColor=#000000;align=center;rounded=1;" vertex="1" parent="1">
          <mxGeometry x="967.5" y="200" width="215" height="120" as="geometry" />
        </mxCell>
        <mxCell id="nfirUbUoAYjW5tZPSxkn-20" value="&lt;font data-font-src=&quot;https://fonts.googleapis.com/css?family=Montserrat&quot; style=&quot;font-size: 16px;&quot; face=&quot;Montserrat&quot;&gt;② COA &lt;br&gt;&lt;/font&gt;" style="shape=document;whiteSpace=wrap;html=1;boundedLbl=1;fontFamily=Montserrat;fontSource=https%3A%2F%2Ffonts.googleapis.com%2Fcss%3Ffamily%3DMontserrat;fontSize=16;" vertex="1" parent="1">
          <mxGeometry x="745" y="330" width="120" height="50" as="geometry" />
        </mxCell>
        <mxCell id="nfirUbUoAYjW5tZPSxkn-22" value="COC" style="shape=document;whiteSpace=wrap;html=1;boundedLbl=1;fontFamily=Montserrat;fontSource=https%3A%2F%2Ffonts.googleapis.com%2Fcss%3Ffamily%3DMontserrat;fontSize=16;" vertex="1" parent="1">
          <mxGeometry x="967.5" y="330" width="127.5" height="50" as="geometry" />
        </mxCell>
        <mxCell id="nfirUbUoAYjW5tZPSxkn-48" value="&lt;font data-font-src=&quot;https://fonts.googleapis.com/css?family=Montserrat&quot; style=&quot;font-size: 16px;&quot; face=&quot;Montserrat&quot;&gt;② COA &lt;br&gt;&lt;/font&gt;" style="shape=document;whiteSpace=wrap;html=1;boundedLbl=1;fontFamily=Montserrat;fontSource=https%3A%2F%2Ffonts.googleapis.com%2Fcss%3Ffamily%3DMontserrat;fontSize=16;" vertex="1" parent="1">
          <mxGeometry x="1230" y="-50" width="120" height="50" as="geometry" />
        </mxCell>
      </root>
    </mxGraphModel>
  </diagram>
</mxfile>
